<?xml version="1.0" standalone="no"?>
<!DOCTYPE svg PUBLIC "-//W3C//DTD SVG 20010904//EN"
 "http://www.w3.org/TR/2001/REC-SVG-20010904/DTD/svg10.dtd">
<svg version="1.0" xmlns="http://www.w3.org/2000/svg"
 width="1355.000000pt" height="564.000000pt" viewBox="0 0 1355.000000 564.000000"
 preserveAspectRatio="xMidYMid meet">

<g transform="translate(0.000000,564.000000) scale(0.100000,-0.100000)"
fill="#000000" stroke="none">
<path d="M0 2820 l0 -2820 6775 0 6775 0 0 2820 0 2820 -6775 0 -6775 0 0
-2820z m6617 2671 c251 -72 408 -240 464 -496 16 -77 16 -272 0 -350 -31 -145
-100 -278 -241 -465 -70 -92 -103 -155 -95 -180 17 -52 156 -52 486 0 l256 41
59 -39 c82 -54 216 -101 323 -115 77 -9 104 -8 177 6 48 9 117 28 155 43 l67
27 29 -21 c100 -71 445 -138 520 -100 l29 14 -7 -60 c-10 -90 -25 -146 -81
-306 -66 -187 -171 -414 -253 -543 l-64 -102 2490 -3 2489 -2 0 -40 0 -40
-2489 -2 -2490 -3 66 -105 c83 -133 186 -354 251 -540 56 -160 71 -216 81
-306 l7 -60 -29 14 c-78 39 -406 -27 -532 -107 -18 -11 -30 -9 -85 13 -36 15
-107 34 -158 43 -80 14 -105 15 -180 4 -108 -15 -238 -62 -315 -114 l-59 -39
-256 41 c-259 41 -376 49 -444 31 -70 -20 -58 -62 61 -223 113 -153 146 -208
183 -302 58 -146 76 -278 58 -426 -45 -371 -286 -582 -695 -607 -129 -8 -309
12 -410 44 -195 64 -355 225 -411 415 -53 178 -46 383 18 549 12 30 22 56 22
56 1 1 39 5 86 9 l85 7 83 -56 c102 -68 173 -90 260 -82 78 7 146 42 206 107
40 43 48 48 102 53 100 11 107 15 131 81 28 78 38 156 24 184 -25 46 -64 54
-326 71 -88 5 -220 15 -294 22 l-133 12 -18 41 c-12 28 -53 75 -124 141 -191
178 -294 333 -330 499 -25 111 -12 218 47 399 l45 136 -2679 0 -2679 0 0 40 0
40 2679 0 2679 0 -45 136 c-59 181 -72 288 -47 399 36 163 146 330 330 499
109 101 134 136 134 186 0 62 6 61 -235 44 -396 -27 -484 -8 -430 95 22 44 70
64 235 100 155 34 210 53 235 81 15 17 14 23 -13 77 -58 113 -84 234 -83 373
3 317 171 564 446 654 28 9 103 24 168 34 159 23 320 14 464 -27z m-792 -4011
c105 -11 291 -27 415 -35 287 -20 290 -20 290 -53 0 -14 -7 -51 -16 -83 -17
-61 -27 -69 -91 -69 -52 0 -85 -18 -148 -80 -70 -69 -95 -80 -176 -80 -71 0
-110 15 -200 76 -77 53 -126 67 -198 55 -40 -6 -54 -5 -58 5 -9 25 -88 53
-223 79 -203 39 -276 81 -268 152 2 20 13 33 38 46 32 17 55 18 240 13 113 -3
291 -14 395 -26z"/>
<path d="M6215 5460 c-256 -19 -447 -132 -538 -320 -109 -223 -100 -466 24
-684 l41 -73 44 8 c25 5 72 27 106 50 81 55 145 79 214 79 67 0 114 -22 169
-80 48 -51 106 -79 160 -80 22 0 45 -4 50 -8 12 -8 45 -120 45 -152 0 -11 -3
-20 -8 -20 -11 0 -476 -38 -561 -46 l-73 -7 6 -37 c3 -22 -1 -59 -10 -91 -14
-46 -28 -65 -97 -129 -133 -122 -194 -190 -256 -281 -71 -105 -100 -186 -108
-300 -5 -72 -2 -101 20 -185 14 -54 39 -135 55 -179 l30 -80 1410 -3 1410 -2
37 42 c119 140 324 599 379 849 6 26 6 26 -75 33 -136 11 -282 48 -377 94
l-53 26 -87 -29 c-80 -27 -99 -29 -232 -29 -124 -1 -156 3 -219 23 -83 26
-173 67 -222 101 l-32 23 -151 -27 c-401 -72 -540 -73 -608 -6 -21 22 -28 38
-28 68 0 60 20 97 129 243 108 144 169 255 198 359 25 93 24 331 -1 415 -60
196 -181 327 -360 392 -53 19 -251 53 -296 51 -19 0 -80 -4 -135 -8z m-345
-595 l0 -155 -45 0 -45 0 0 155 0 155 45 0 45 0 0 -155z m360 0 l0 -155 -45 0
-45 0 0 155 0 155 45 0 45 0 0 -155z"/>
<path d="M5865 840 l-39 -40 -38 37 -38 37 -30 -29 -30 -29 37 -38 37 -38 -39
-40 -39 -40 32 -32 32 -32 40 39 40 39 40 -39 40 -39 30 30 30 30 -40 39 -40
39 40 41 40 41 -33 32 -33 32 -39 -40z"/>
<path d="M6072 847 l-32 -33 40 -39 40 -39 -40 -41 -40 -41 30 -29 30 -29 40
39 40 39 40 -39 40 -39 32 32 32 32 -39 40 -39 40 37 38 37 38 -30 29 -30 29
-37 -37 -37 -37 -41 40 -41 40 -32 -33z"/>
</g>
</svg>
