<?xml version="1.0" standalone="no"?>
<!DOCTYPE svg PUBLIC "-//W3C//DTD SVG 20010904//EN"
 "http://www.w3.org/TR/2001/REC-SVG-20010904/DTD/svg10.dtd">
<svg version="1.0" xmlns="http://www.w3.org/2000/svg"
 width="500.000000pt" height="533.000000pt" viewBox="0 0 500.000000 533.000000"
 preserveAspectRatio="xMidYMid meet">

<g transform="translate(0.000000,533.000000) scale(0.100000,-0.100000)"
fill="#000000" stroke="none">
<path d="M2985 5239 c-223 -47 -371 -174 -442 -376 -25 -72 -27 -90 -28 -233
0 -133 3 -165 22 -225 33 -104 80 -188 168 -304 112 -149 145 -206 145 -256 0
-103 -93 -139 -301 -116 -57 6 -185 25 -284 42 l-181 31 -54 -36 c-63 -42
-187 -88 -284 -106 -96 -18 -239 -7 -348 26 l-86 27 -75 -32 c-99 -41 -221
-70 -330 -78 l-88 -6 7 -46 c19 -127 161 -477 271 -666 l52 -90 -567 -5 -567
-5 -9 -88 c-5 -48 -5 -91 -1 -95 3 -4 258 -9 565 -12 l559 -5 -46 -75 c-151
-246 -332 -717 -333 -868 0 -20 2 -21 22 -11 32 17 214 5 318 -22 47 -11 117
-38 156 -58 l71 -37 51 24 c192 87 460 62 642 -60 71 -47 48 -47 325 2 231 41
413 47 445 15 33 -33 18 -68 -101 -230 -107 -147 -177 -271 -197 -350 -56
-218 -25 -477 74 -632 82 -128 209 -222 355 -263 64 -17 103 -20 294 -20 254
0 292 6 431 75 73 36 104 58 156 114 78 82 139 196 164 307 36 162 4 418 -68
547 -23 40 -24 48 -12 66 18 25 48 35 220 70 78 16 158 37 178 46 66 31 93 88
63 129 -28 38 -181 45 -461 21 -93 -8 -172 -12 -176 -10 -4 3 -10 17 -13 31
-10 56 10 87 137 207 139 131 210 218 261 322 86 174 87 317 5 559 -16 50 -30
93 -30 98 0 4 204 8 454 8 250 0 461 3 470 6 18 7 23 94 6 94 -5 0 -10 23 -10
50 l0 50 -446 0 c-376 0 -445 2 -441 14 39 100 50 159 52 276 l3 125 -8 -110
c-7 -103 -20 -166 -53 -260 -12 -35 -18 -40 -50 -43 l-35 -3 33 103 c63 195
57 299 -24 463 -56 112 -137 211 -263 321 -109 94 -133 133 -133 212 0 55 -3
63 -20 67 -11 3 -123 11 -250 20 -384 26 -368 20 -340 118 21 73 36 87 86 87
56 0 85 14 148 75 31 30 74 61 94 70 78 33 181 10 278 -62 49 -35 75 -47 110
-51 42 -4 48 -2 66 24 95 136 137 369 97 547 -59 263 -229 416 -512 461 -129
21 -274 19 -387 -5z m395 -569 l0 -150 -45 0 -45 0 0 150 0 150 45 0 45 0 0
-150z m340 0 l0 -150 -45 0 -45 0 0 150 0 150 45 0 45 0 0 -150z m314 -2217
c72 -224 72 -334 -3 -488 -53 -111 -114 -187 -252 -317 -138 -129 -165 -173
-156 -248 l6 -48 -57 -6 c-31 -3 -131 -11 -222 -16 -223 -15 -322 -27 -338
-44 -12 -11 -10 -24 8 -85 l21 -71 37 0 c64 0 109 -19 149 -62 21 -22 58 -53
82 -69 38 -25 55 -29 110 -29 79 1 121 15 185 61 116 83 159 90 198 32 190
-288 120 -735 -141 -902 -197 -127 -538 -152 -787 -60 -228 85 -354 291 -354
579 0 198 50 333 194 525 129 171 146 201 146 256 0 41 -4 51 -35 77 -19 17
-51 34 -72 38 -64 12 -261 -5 -463 -40 -188 -32 -196 -33 -220 -16 -71 49
-201 102 -298 121 -99 19 -281 7 -373 -24 l-75 -26 -88 36 c-93 37 -224 68
-338 79 l-69 7 7 46 c9 63 86 282 147 420 59 133 177 344 215 384 l26 27 1382
0 1383 0 45 -137z"/>
<path d="M3232 772 l-33 -27 36 -35 c19 -18 35 -38 35 -44 0 -6 -16 -26 -35
-46 l-35 -36 30 -29 30 -29 40 39 40 39 38 -37 38 -37 29 30 29 30 -37 38 -37
38 37 37 37 37 -29 30 -29 30 -38 -37 -38 -37 -37 36 -38 37 -33 -27z"/>
<path d="M3577 772 l-27 -28 36 -43 37 -42 -37 -38 -36 -37 30 -29 30 -29 40
39 40 39 34 -40 34 -39 31 29 31 30 -37 38 -37 38 39 40 39 40 -29 30 -29 30
-36 -35 c-20 -19 -40 -35 -45 -35 -5 0 -25 16 -45 35 l-36 35 -27 -28z"/>
<path d="M3958 4605 c-6 -137 -21 -212 -61 -307 -9 -21 -12 -38 -8 -38 12 0
46 95 65 180 12 52 16 110 14 190 l-3 115 -7 -140z"/>
<path d="M4341 3984 c0 -11 -10 -29 -22 -40 -19 -17 -38 -19 -213 -19 -105 0
-243 3 -306 7 -151 10 -130 3 49 -17 165 -17 388 -20 443 -5 41 12 62 39 55
73 -4 21 -4 21 -6 1z"/>
<path d="M4131 3224 c0 -11 3 -14 6 -6 3 7 2 16 -1 19 -3 4 -6 -2 -5 -13z"/>
</g>
</svg>
